<svg xmlns="http://www.w3.org/2000/svg" viewBox="0 0 1024 1024">
  <defs>
    <linearGradient id="base" x1="176" y1="112" x2="850" y2="914" gradientUnits="userSpaceOnUse">
      <stop offset="0" stop-color="#3cc2d7"/>
      <stop offset="0.42" stop-color="#1b74a6"/>
      <stop offset="1" stop-color="#102d55"/>
    </linearGradient>
    <linearGradient id="baseShade" x1="220" y1="130" x2="812" y2="872" gradientUnits="userSpaceOnUse">
      <stop offset="0" stop-color="#ffffff" stop-opacity="0.38"/>
      <stop offset="0.5" stop-color="#ffffff" stop-opacity="0.05"/>
      <stop offset="1" stop-color="#001326" stop-opacity="0.55"/>
    </linearGradient>
    <linearGradient id="folderBack" x1="238" y1="336" x2="752" y2="646" gradientUnits="userSpaceOnUse">
      <stop offset="0" stop-color="#dbf4ff"/>
      <stop offset="0.38" stop-color="#79c9f3"/>
      <stop offset="1" stop-color="#2477b2"/>
    </linearGradient>
    <linearGradient id="folderFront" x1="184" y1="452" x2="840" y2="824" gradientUnits="userSpaceOnUse">
      <stop offset="0" stop-color="#fff0a4"/>
      <stop offset="0.48" stop-color="#e5a64a"/>
      <stop offset="1" stop-color="#a85723"/>
    </linearGradient>
    <linearGradient id="paper" x1="318" y1="314" x2="656" y2="574" gradientUnits="userSpaceOnUse">
      <stop offset="0" stop-color="#ffffff"/>
      <stop offset="1" stop-color="#bce8fb"/>
    </linearGradient>
    <linearGradient id="leaf" x1="554" y1="178" x2="794" y2="392" gradientUnits="userSpaceOnUse">
      <stop offset="0" stop-color="#d9ff86"/>
      <stop offset="0.48" stop-color="#6fd45f"/>
      <stop offset="1" stop-color="#208b52"/>
    </linearGradient>
    <linearGradient id="bucket" x1="600" y1="574" x2="754" y2="760" gradientUnits="userSpaceOnUse">
      <stop offset="0" stop-color="#f2fbff"/>
      <stop offset="0.4" stop-color="#9ec8db"/>
      <stop offset="1" stop-color="#537d91"/>
    </linearGradient>
  </defs>

  <rect width="1024" height="1024" fill="none"/>

  <g>
    <rect x="96" y="76" width="832" height="832" rx="186" fill="#1f80ac"/>
    <rect x="96" y="484" width="832" height="424" rx="186" fill="#102d55" opacity="0.42"/>
    <rect x="112" y="92" width="800" height="800" rx="172" fill="none" stroke="#9ee8f5" stroke-width="32" opacity="0.2"/>
    <path d="M162 176c94-66 220-93 356-72 132 20 243 80 326 174-102-51-214-78-336-78-132 0-248 26-346 76v-100z" fill="#ffffff" opacity="0.13"/>

    <g>
      <path d="M238 374c0-48 39-87 87-87h106c31 0 50 15 68 40l24 34h177c55 0 100 45 100 100v168H218V394c0-11 9-20 20-20z" fill="#70c7f1"/>
      <path d="M238 500h562v129H218V394c0-11 9-20 20-20h20v86c0 22-1 32-20 40z" fill="#236fa5" opacity="0.34"/>
      <rect x="284" y="328" width="430" height="268" rx="44" fill="#10476e" opacity="0.35"/>
      <rect x="314" y="352" width="370" height="222" rx="32" fill="#def7ff" opacity="0.96"/>
      <rect x="314" y="352" width="370" height="58" rx="32" fill="#ffffff" opacity="0.42"/>
      <rect x="344" y="386" width="72" height="154" rx="18" fill="#11618a" opacity="0.82"/>
      <rect x="444" y="390" width="190" height="18" rx="9" fill="#1374a0" opacity="0.58"/>
      <rect x="444" y="436" width="150" height="16" rx="8" fill="#1374a0" opacity="0.36"/>
      <rect x="444" y="478" width="176" height="16" rx="8" fill="#1374a0" opacity="0.36"/>
      <rect x="444" y="520" width="118" height="16" rx="8" fill="#1374a0" opacity="0.36"/>
      <rect x="610" y="430" width="42" height="84" rx="14" fill="#ffffff" opacity="0.52"/>

      <path d="M165 505c-4-30 20-56 50-56h242c33 0 54 15 73 42l24 34h295c20 0 36 16 36 36v10H557c-35 0-58-16-78-45l-17-25H165v4z" fill="#fff8d3" opacity="0.7"/>
      <path d="M170 505c-7-59 39-111 99-111h124c38 0 60 17 82 50l25 36h316c51 0 94 38 101 89l28 203c9 64-41 121-105 121H286c-59 0-109-44-116-103l-34-257c-2-15 10-28 25-28h300l24 35c18 27 39 42 72 42h329l-2-11H557c-38 0-64-18-86-51l-14-21H170v6z" fill="#e1a447"/>
      <path d="M160 620h770l15 152c9 64-41 121-105 121H286c-59 0-109-44-116-103l-20-152c-1-10 3-18 10-18z" fill="#b76a2f" opacity="0.48"/>
      <path d="M214 770c142 42 470 45 676 4-17 48-58 80-109 80H293c-41 0-70-34-79-84z" fill="#7d3f1e" opacity="0.25"/>
      <path d="M178 518h277l22 32c23 34 48 49 84 49h325l3 26H559c-47 0-80-21-107-62l-11-17H178v-28z" fill="#fff6c6" opacity="0.38"/>
    </g>

    <g>
      <path d="M614 336c54-100 143-135 232-94-21 99-94 153-207 138-25-3-37-23-25-44z" fill="#62cf5c"/>
      <path d="M650 296c49-48 115-63 196-54-21 99-94 153-207 138-20-3-32-16-30-33 15 9 29 15 41 18z" fill="#2e9654" opacity="0.38"/>
      <path d="M632 366c66-43 131-76 197-99" fill="none" stroke="#edffd2" stroke-width="16" stroke-linecap="round" opacity="0.58"/>
      <path d="M594 414c-3-75 33-141 96-197" fill="none" stroke="#66cc62" stroke-width="24" stroke-linecap="round"/>
      <path d="M548 296c-9-73 29-132 98-166 55 67 50 140-10 209-17 19-55 6-88-43z" fill="#67d760"/>
      <path d="M596 182c15-20 32-37 50-52 55 67 50 140-10 209-16 18-50 8-82-32 29 4 55-6 75-31 20-26 11-61-33-94z" fill="#2e9654" opacity="0.38"/>
      <path d="M585 324c9-58 26-110 50-159" fill="none" stroke="#edffd2" stroke-width="14" stroke-linecap="round" opacity="0.52"/>
    </g>

    <g transform="translate(600 604)">
      <ellipse cx="78" cy="30" rx="82" ry="36" fill="#284a5c" opacity="0.35"/>
      <path d="M0 34c0 24 35 43 78 43s78-19 78-43v124c0 24-35 43-78 43S0 182 0 158V34z" fill="#8fb7c9"/>
      <path d="M0 102c0 24 35 43 78 43s78-19 78-43v56c0 24-35 43-78 43S0 182 0 158v-56z" fill="#5f879c" opacity="0.48"/>
      <ellipse cx="78" cy="34" rx="78" ry="34" fill="#dcecf5"/>
      <ellipse cx="78" cy="34" rx="58" ry="20" fill="#84aabd"/>
      <path d="M0 104c0 24 35 43 78 43s78-19 78-43" fill="none" stroke="#e6f6ff" stroke-width="10" opacity="0.65"/>
      <path d="M78 92v76M46 136l32 34 32-34" fill="none" stroke="#16486b" stroke-width="17" stroke-linecap="round" stroke-linejoin="round"/>
    </g>
  </g>
</svg>
